<?xml version="1.0" encoding="utf-8"?>
<!-- Generator: Adobe Illustrator 24.1.0, SVG Export Plug-In . SVG Version: 6.00 Build 0)  -->
<svg version="1.1" id="Capa_1" xmlns="http://www.w3.org/2000/svg" xmlns:xlink="http://www.w3.org/1999/xlink" x="0px" y="0px"
	 viewBox="0 0 900 900" style="enable-background:new 0 0 900 900;" xml:space="preserve">
<style type="text/css">
	.st0{fill:url(#SVGID_1_);}
	.st1{fill:url(#SVGID_2_);}
	.st2{fill:#FFFFFF;}
</style>
<g>
	
		<radialGradient id="SVGID_1_" cx="-200.9969" cy="188.2177" r="352.1467" gradientTransform="matrix(0 -1.982 -1.8439 0 631.9559 457.986)" gradientUnits="userSpaceOnUse">
		<stop  offset="0" style="stop-color:#FFDD55"/>
		<stop  offset="0.1" style="stop-color:#FFDD55"/>
		<stop  offset="0.5" style="stop-color:#FF543E"/>
		<stop  offset="1" style="stop-color:#C837AB"/>
	</radialGradient>
	<path class="st0" d="M450.1,97.9c-147,0-190.1,0.2-198.4,0.8c-30.2,2.5-49,7.3-69.4,17.4c-15.8,7.8-28.2,16.9-40.5,29.6
		c-22.3,23.2-35.9,51.7-40.8,85.7c-2.4,16.5-3.1,19.8-3.2,104c-0.1,28,0,64.9,0,114.4c0,146.9,0.2,189.9,0.9,198.2
		c2.4,29.4,7,47.8,16.8,68c18.6,38.7,54.2,67.7,96.2,78.6c14.5,3.7,30.6,5.8,51.1,6.8c8.7,0.4,97.6,0.7,186.6,0.7
		s177.9-0.1,186.4-0.5c23.8-1.1,37.7-3,53-6.9c42.2-10.9,77.1-39.5,96.2-78.7c9.6-19.7,14.4-38.9,16.6-66.7
		c0.5-6.1,0.7-102.8,0.7-199.4c0-96.6-0.2-193.2-0.7-199.3c-2.2-28.3-7.1-47.3-16.9-67.4c-8.1-16.5-17.1-28.7-30.1-41.3
		c-23.3-22.3-51.8-35.8-85.8-40.7c-16.5-2.4-19.7-3.1-103.9-3.2H450.1z"/>
	
		<radialGradient id="SVGID_2_" cx="300.501" cy="420.0533" r="352.1467" gradientTransform="matrix(0.1739 0.8687 3.5818 -0.7172 -1577.0237 188.8175)" gradientUnits="userSpaceOnUse">
		<stop  offset="0" style="stop-color:#3771C8"/>
		<stop  offset="0.128" style="stop-color:#3771C8"/>
		<stop  offset="1" style="stop-color:#6600FF;stop-opacity:0"/>
	</radialGradient>
	<path class="st1" d="M450.1,97.9c-147,0-190.1,0.2-198.4,0.8c-30.2,2.5-49,7.3-69.4,17.4c-15.8,7.8-28.2,16.9-40.5,29.6
		c-22.3,23.2-35.9,51.7-40.8,85.7c-2.4,16.5-3.1,19.8-3.2,104c-0.1,28,0,64.9,0,114.4c0,146.9,0.2,189.9,0.9,198.2
		c2.4,29.4,7,47.8,16.8,68c18.6,38.7,54.2,67.7,96.2,78.6c14.5,3.7,30.6,5.8,51.1,6.8c8.7,0.4,97.6,0.7,186.6,0.7
		s177.9-0.1,186.4-0.5c23.8-1.1,37.7-3,53-6.9c42.2-10.9,77.1-39.5,96.2-78.7c9.6-19.7,14.4-38.9,16.6-66.7
		c0.5-6.1,0.7-102.8,0.7-199.4c0-96.6-0.2-193.2-0.7-199.3c-2.2-28.3-7.1-47.3-16.9-67.4c-8.1-16.5-17.1-28.7-30.1-41.3
		c-23.3-22.3-51.8-35.8-85.8-40.7c-16.5-2.4-19.7-3.1-103.9-3.2H450.1z"/>
	<path class="st2" d="M450,190c-70.6,0-79.5,0.3-107.2,1.6c-27.7,1.3-46.6,5.7-63.1,12.1c-17.1,6.6-31.6,15.5-46.1,30
		c-14.5,14.5-23.4,29-30,46.1c-6.4,16.5-10.8,35.4-12.1,63.1c-1.2,27.7-1.6,36.6-1.6,107.2s0.3,79.5,1.6,107.2
		c1.3,27.7,5.7,46.6,12.1,63.1c6.6,17.1,15.5,31.6,30,46.1c14.4,14.5,29,23.4,46,30c16.5,6.4,35.4,10.8,63.1,12.1
		c27.7,1.3,36.6,1.6,107.2,1.6c70.6,0,79.5-0.3,107.2-1.6c27.7-1.3,46.6-5.7,63.1-12.1c17.1-6.6,31.6-15.5,46-30
		c14.5-14.5,23.4-29,30-46.1c6.4-16.5,10.8-35.4,12.1-63.1c1.2-27.7,1.6-36.6,1.6-107.2s-0.3-79.5-1.6-107.2
		c-1.3-27.7-5.7-46.6-12.1-63.1c-6.7-17.1-15.5-31.6-30-46.1c-14.5-14.5-28.9-23.4-46-30c-16.6-6.4-35.5-10.8-63.2-12.1
		C529.3,190.3,520.5,190,450,190L450,190z M426.6,236.8c6.9,0,14.6,0,23.3,0c69.4,0,77.7,0.2,105.1,1.5c25.4,1.2,39.1,5.4,48.3,9
		c12.1,4.7,20.8,10.3,29.9,19.4c9.1,9.1,14.7,17.8,19.5,29.9c3.6,9.2,7.8,22.9,9,48.3c1.2,27.4,1.5,35.6,1.5,105s-0.3,77.6-1.5,105
		c-1.2,25.4-5.4,39.1-9,48.3c-4.7,12.1-10.4,20.8-19.5,29.9c-9.1,9.1-17.7,14.7-29.9,19.4c-9.2,3.6-22.9,7.8-48.3,9
		c-27.4,1.2-35.6,1.5-105.1,1.5c-69.4,0-77.7-0.3-105.1-1.5c-25.4-1.2-39.1-5.4-48.3-9c-12.1-4.7-20.8-10.3-29.9-19.4
		c-9.1-9.1-14.7-17.7-19.5-29.9c-3.6-9.2-7.8-22.9-9-48.3c-1.2-27.4-1.5-35.6-1.5-105.1s0.2-77.6,1.5-105c1.2-25.4,5.4-39.1,9-48.3
		c4.7-12.1,10.4-20.8,19.5-29.9c9.1-9.1,17.8-14.7,29.9-19.5c9.2-3.6,22.9-7.8,48.3-9C368.9,237.2,378.2,236.8,426.6,236.8
		L426.6,236.8z M588.8,280c-17.2,0-31.2,14-31.2,31.2c0,17.2,14,31.2,31.2,31.2c17.2,0,31.2-14,31.2-31.2C620,294,606,280,588.8,280
		L588.8,280z M450,316.5c-73.8,0-133.5,59.8-133.5,133.5S376.2,583.5,450,583.5c73.8,0,133.5-59.8,133.5-133.5
		S523.7,316.5,450,316.5L450,316.5z M450,363.3c47.9,0,86.7,38.8,86.7,86.7c0,47.9-38.8,86.7-86.7,86.7c-47.9,0-86.7-38.8-86.7-86.7
		C363.3,402.2,402.1,363.3,450,363.3z"/>
</g>
</svg>
